<?xml version="1.0" standalone="no"?>
<!DOCTYPE svg PUBLIC "-//W3C//DTD SVG 20010904//EN"
 "http://www.w3.org/TR/2001/REC-SVG-20010904/DTD/svg10.dtd">
<svg version="1.0" xmlns="http://www.w3.org/2000/svg"
 width="700.000000pt" height="700.000000pt" viewBox="0 0 700.000000 700.000000"
 preserveAspectRatio="xMidYMid meet">
<metadata>
Created by potrace 1.11, written by Peter Selinger 2001-2013
</metadata>
<g transform="translate(0.000000,700.000000) scale(0.100000,-0.100000)"
fill="#000000" stroke="none">
<path d="M2276 6005 c3 -49 7 -97 9 -105 2 -8 6 -55 10 -105 3 -49 8 -103 10
-120 4 -29 9 -76 20 -200 3 -33 7 -78 10 -100 5 -48 14 -143 19 -205 6 -62 15
-163 22 -235 4 -33 8 -85 9 -115 3 -55 13 -197 20 -280 7 -79 18 -420 18 -570
1 -136 -10 -489 -17 -555 -2 -16 -6 -66 -10 -110 -4 -44 -9 -96 -11 -115 -20
-176 -23 -198 -45 -335 -6 -33 -12 -74 -15 -90 l-5 -30 152 -1 c145 0 333 -9
388 -18 14 -2 51 -7 84 -11 59 -7 85 -10 146 -21 72 -12 86 -15 120 -24 19 -5
51 -12 70 -15 105 -18 364 -94 729 -215 167 -55 306 -99 308 -96 3 2 0 13 -5
23 -5 10 -50 124 -100 253 -162 422 -232 589 -455 1100 -59 136 -142 311 -246
520 -369 739 -757 1325 -1215 1835 l-27 30 7 -90z"/>
<path d="M2115 5368 c-5 -16 -66 -235 -104 -378 -16 -58 -50 -181 -76 -275
-26 -93 -49 -177 -50 -185 -2 -8 -36 -130 -75 -270 -39 -140 -73 -262 -75
-270 -1 -8 -24 -91 -50 -185 -26 -93 -85 -309 -132 -480 -47 -170 -104 -380
-128 -465 -23 -85 -41 -156 -40 -158 2 -2 26 8 54 22 28 15 51 24 51 22 0 -3
15 1 33 9 78 32 282 49 392 31 22 -4 68 -11 102 -16 34 -6 69 -13 77 -16 13
-5 15 39 16 368 1 205 3 648 6 983 3 336 6 760 7 943 2 182 1 332 0 332 -2 0
-6 -6 -8 -12z"/>
<path d="M1769 2616 c-2 -2 -35 -7 -74 -10 -67 -6 -101 -11 -155 -21 -14 -3
-38 -8 -55 -11 -150 -27 -489 -151 -546 -200 -8 -8 -20 -14 -25 -14 -5 0 -20
-9 -33 -19 l-23 -18 82 -124 c45 -68 86 -128 90 -132 4 -4 47 16 96 46 49 29
115 65 146 80 150 69 393 136 554 152 38 4 83 9 99 11 37 5 353 4 415 -1 25
-2 78 -7 118 -10 40 -4 83 -8 95 -10 12 -2 45 -6 72 -10 28 -3 66 -9 85 -11
151 -21 494 -91 755 -154 94 -22 181 -43 193 -46 13 -2 110 -25 215 -50 106
-26 203 -48 217 -51 14 -2 50 -10 80 -18 30 -8 71 -17 90 -20 19 -3 42 -8 50
-10 19 -5 49 -11 191 -35 135 -23 159 -27 254 -35 39 -4 81 -8 95 -11 78 -13
283 -19 665 -18 460 1 640 6 651 17 4 4 -42 7 -102 8 -60 0 -145 2 -189 4
-210 7 -425 16 -470 20 -27 2 -90 6 -140 10 -49 3 -101 8 -115 10 -14 2 -52 7
-84 10 -33 3 -74 8 -93 10 -18 3 -50 7 -70 10 -109 16 -179 28 -288 51 -204
43 -347 82 -860 236 -121 36 -177 53 -230 68 -22 6 -60 18 -85 27 -112 37
-621 170 -685 178 -11 2 -56 11 -100 20 -103 22 -101 21 -165 30 -30 4 -63 9
-74 11 -17 3 -64 9 -166 20 -57 7 -475 15 -481 10z"/>
<path d="M1859 2206 c-2 -3 -29 -7 -58 -11 -30 -3 -57 -8 -60 -10 -4 -2 -27
-6 -51 -10 -97 -14 -350 -111 -429 -164 -12 -8 -3 -27 48 -105 35 -53 65 -96
66 -96 2 0 32 18 68 39 123 75 269 126 445 156 111 18 344 26 445 14 34 -4 92
-10 128 -13 37 -3 73 -8 80 -10 8 -3 37 -7 65 -10 28 -3 57 -8 65 -10 8 -3 30
-7 49 -10 66 -10 235 -47 505 -111 285 -68 520 -121 570 -128 339 -54 388 -57
780 -56 344 0 422 2 431 12 4 4 -40 7 -97 8 -152 2 -480 17 -518 24 -9 1 -52
6 -97 9 -44 4 -92 9 -105 11 -13 2 -69 11 -124 20 -81 14 -190 37 -365 80 -8
2 -85 25 -170 50 -688 206 -891 260 -1085 289 -16 2 -50 8 -75 12 -25 4 -58 9
-75 11 -47 5 -432 13 -436 9z"/>
<path d="M6185 1880 c4 -6 11 -8 16 -5 14 9 11 15 -7 15 -8 0 -12 -5 -9 -10z"/>
<path d="M5028 1683 c7 -3 16 -2 19 1 4 3 -2 6 -13 5 -11 0 -14 -3 -6 -6z"/>
<path d="M5068 1683 c7 -3 16 -2 19 1 4 3 -2 6 -13 5 -11 0 -14 -3 -6 -6z"/>
</g>
</svg>
